# AST/ASF file generated using VICON BodyLanguage
# -----------------------------------------------
:version 1.10
:name VICON
:units
  mass 1.0
  length 0.45
  angle deg
:documentation
   .ast/.asf automatically generated from VICON data using
   VICON BodyBuilder and BodyLanguage model FoxedUp or BRILLIANT.MOD
:root
   order TX TY TZ RX RY RZ
   axis XYZ
   position 0 0 0  
   orientation 0 0 0 
:bonedata
  begin
     id 1 
     name lhipjoint
     direction 0.570549 -0.739093 0.358072 
     length 2.41801 
     axis 0 0 0  XYZ
  end
  begin
     id 2 
     name lfemur
     direction 0.34202 -0.939693 0  
     length 7.44434  
     axis 0 0 20  XYZ
    dof rx ry rz
    limits (-160.0 20.0)
           (-70.0 70.0)
           (-60.0 70.0)
  end
  begin
     id 3 
     name ltibia
     direction 0.34202 -0.939693 0   
     length 7.60047   
     axis 0 0 20   XYZ
    dof rx
    limits (-10.0 170.0)
  end
  begin
     id 4 
     name lfoot
     direction 0.0909041 -0.249757 0.964032   
     length 2.03437   
     axis -90 7.62852e-016 20   XYZ
    dof rx rz
    limits (-45.0 90.0)
           (-70.0 20.0)
  end
  begin
     id 5 
     name ltoes
     direction 1.53547e-011 -4.2174e-011 1   
     length 1.02054   
     axis -90 7.62852e-016 20   XYZ
    dof rx
    limits (-90.0 20.0)
  end
  begin
     id 6 
     name rhipjoint
     direction -0.558096 -0.746754 0.361784   
     length 2.3932  
     axis 0 0 0  XYZ 
  end
  begin
     id 7 
     name rfemur
     direction -0.34202 -0.939693 0   
     length 7.3886   
     axis 0 0 -20   XYZ
    dof rx ry rz
    limits (-160.0 20.0)
           (-70.0 70.0)
           (-70.0 60.0)
  end
  begin
     id 8 
     name rtibia
     direction -0.34202 -0.939693 0   
     length 7.4839   
     axis 0 0 -20   XYZ
    dof rx
    limits (-10.0 170.0)
 end
 begin
     id 9 
     name rfoot
     direction -0.114619 -0.314914 0.942174   
     length 2.25127  
     axis -90 -7.62852e-016 -20   XYZ
    dof rx rz
    limits (-45.0 90.0)
           (-20.0 70.0)
  end
  begin
     id 10 
     name rtoes
     direction -1.53518e-011 -4.21881e-011 1   
     length 1.11821   
     axis -90 -7.62852e-016 -20   XYZ
    dof rx
    limits (-90.0 20.0)
  end
  begin
     id 11 
     name lowerback
     direction -0.00902269 0.996426 -0.0839821   
     length 2.25052   
     axis 0 0 0   XYZ
    dof rx ry rz
    limits (-20.0 45.0)
           (-30.0 30.0)
           (-30.0 30.0)
  end
  begin
     id 12 
     name upperback
     direction 0.0370973 0.999169 -0.0168941   
     length 2.24876   
     axis 0 0 0   XYZ
    dof rx ry rz
    limits (-20.0 45.0)
           (-30.0 30.0)
           (-30.0 30.0)
  end
  begin
     id 13 
     name thorax
     direction 0.0402726 0.998931 0.0227027   
     length 2.26408   
     axis 0 0 0   XYZ
    dof rx ry rz
    limits (-20.0 45.0)
           (-30.0 30.0)
           (-30.0 30.0)
  end
  begin
     id 14 
     name lowerneck
     direction -0.0733697 0.98508 0.155675   
     length 1.58204   
     axis 0 0 0   XYZ
    dof rx ry rz
    limits (-20.0 45.0)
           (-30.0 30.0)
           (-30.0 30.0)
  end
  begin
     id 15 
     name upperneck
     direction 0.0426554 0.993501 -0.105526   
     length 1.61222   
     axis 0 0 0   XYZ
    dof rx ry rz
    limits (-20.0 45.0)
           (-30.0 30.0)
           (-30.0 30.0)
  end
  begin
     id 16
     name head
     direction 0.020792 0.998384 -0.0528868  
     length 1.61527  
     axis 0 0 0   XYZ
    dof rx ry rz
    limits (-20.0 45.0)
           (-30.0 30.0)
           (-30.0 30.0)
  end
  begin
     id 17 
     name lclavicle
     direction 0.967109 0.155462 -0.201325  
     length 3.59357  
     axis 0 0 0   XYZ
    dof ry rz
    limits (-20.0 10.0)
           (0.0 20.0)
  end
  begin
     id 18 
     name lhumerus
     direction 1 -4.48968e-011 2.38195e-027   
     length 5.38154   
     axis 180 -30 -90   XYZ
    dof rx ry rz
    limits (-60.0 90.0)
           (-90.0 90.0)
           (-90.0 90.0)
  end
  begin
     id 19
     name lradius
     direction 1 -4.48961e-011 4.85371e-027   
     length 3.33312   
     axis 180 -30 -90   XYZ
    dof rx
    limits (-10.0 170.0)
  end
  begin
     id 20
     name lwrist
     direction 1 -4.48961e-011 4.76515e-027   
     length 1.66656   
     axis -3.27502e-015 90 90   XYZ
    dof ry
    limits (-180.0 0.0)
 end
  begin
     id 21 
     name lhand
     direction 1 -4.48951e-011 9.53074e-027   
     length 0.710789   
     axis -6.08098e-015 90 90   XYZ
    dof rx rz
    limits (-90.0 90.0)
           (-45.0 45.0)
  end
  begin
     id 22 
     name lfingers
     direction 1 -4.48953e-011 1.90613e-026   
     length 0.573057   
     axis -1.21619e-014 90 90   XYZ
    dof rx
    limits (0.0 90.0)
  end
  begin
     id 23
     name lthumb
     direction 0.707107 -6.34973e-011 0.707107   
     length 0.822798   
     axis -90 45 -9.86923e-015   XYZ
    dof rx rz
    limits (-45.0 45.0)
           (-45.0 45.0)
  end
  begin
     id 24 
     name rclavicle
     direction -0.9585 0.265289 -0.104398   
     length 3.42039  
     axis 0 0 0   XYZ 
    dof ry rz
    limits (-10.0 20.0)
           (-20.0 0.0)
  end
  begin
     id 25 
     name rhumerus
     direction -1 -4.48977e-011 2.21478e-027  
     length 5.16954   
     axis 180 30 90   XYZ
    dof rx ry rz
    limits (-90.0 60.0)
           (-90.0 90.0)
           (-90.0 90.0)
  end
  begin
     id 26 
     name rradius
     direction -1 -4.48967e-011 5.63677e-027   
     length 3.38287   
     axis 180 30 90   XYZ
    dof rx
    limits (-10.0 170.0)
  end
  begin
     id 27 
     name rwrist
     direction -1 -4.48967e-011 4.76501e-027   
     length 1.69144   
     axis -3.27502e-015 -90 -90   XYZ
    dof ry
    limits (-180.0 0.0)
  end
  begin
     id 28
     name rhand
     direction -1 -4.48902e-011 9.53292e-027   
     length 0.817967   
     axis -6.08098e-015 -90 -90   XYZ
    dof rx rz
    limits (-90.0 90.0)
           (-45.0 45.0)
  end
  begin
     id 29
     name rfingers
     direction -1 -4.49012e-011 1.90561e-026   
     length 0.659466   
     axis -1.21619e-014 -90 -90   XYZ
    dof rx
    limits (0.0 90.0)
  end
  begin
     id 30
     name rthumb
     direction -0.707107 -6.34944e-011 0.707107   
     length 0.946865   
     axis -90 -45 9.86923e-015   XYZ
    dof rx rz
    limits (-45.0 45.0)
           (-45.0 45.0)
  end
:hierarchy
  begin
    root lhipjoint rhipjoint lowerback
    lhipjoint lfemur
    lfemur ltibia
    ltibia lfoot
    lfoot ltoes
    rhipjoint rfemur
    rfemur rtibia
    rtibia rfoot
    rfoot rtoes
    lowerback upperback
    upperback thorax
    thorax lowerneck lclavicle rclavicle
    lowerneck upperneck
    upperneck head
    lclavicle lhumerus
    lhumerus lradius
    lradius lwrist
    lwrist lhand lthumb
    lhand lfingers
    rclavicle rhumerus
    rhumerus rradius
    rradius rwrist
    rwrist rhand rthumb
    rhand rfingers
  end

#!OML:ASF F:\twosubjects\two\wednesday\Session 1\Justin1.ASF
:FULLY-SPECIFIED
:DEGREES
66
root 3.90065 17.659 13.7873 178.741 -10.3224 -181.429
lowerback 3.98054 0.526652 -0.431406
upperback -0.133028 0.6726 3.2002
thorax -2.41406 0.323183 3.50238
lowerneck -17.4654 -4.82992 -11.3187
upperneck 16.1013 -5.03106 6.39832
head 8.33475 -2.48439 3.37275
rclavicle 2.85753e-014 4.77083e-015
rhumerus 35.3431 9.08675 -54.7129
rradius 32.0926
rwrist -3.01083
rhand -7.15895 25.978
rfingers 7.12502
rthumb 18.7179 -3.14145
lclavicle 2.85753e-014 4.77083e-015
lhumerus 28.9772 1.98402 50.6038
lradius 33.2929
lwrist -17.5093
lhand 1.67859 35.4681
lfingers 7.12502
lthumb 27.1972 63.5278
rfemur -21.3133 -4.80437 19.1579
rtibia 35.689
rfoot -9.54684 -10.3741
rtoes 13.3077
lfemur -0.361044 -1.06755 -11.9229
ltibia 53.2661
lfoot 0.496624 -19.494
ltoes -16.0819
67
root 3.90464 17.6805 13.6453 178.684 -9.78461 -181.351
lowerback 3.94613 0.527723 -0.416391
upperback -0.196388 0.666001 3.51428
thorax -2.46374 0.315326 3.82161
lowerneck -17.5178 -4.75689 -11.9691
upperneck 16.372 -4.86546 6.85465
head 8.44881 -2.40834 3.6593
rclavicle 2.43511e-015 3.18055e-015
rhumerus 35.2387 9.37074 -55.4002
rradius 31.9172
rwrist -2.47578
rhand -7.38488 26.1887
rfingers 7.12502
rthumb 18.5006 -2.95149
lclavicle 2.43511e-015 3.18055e-015
lhumerus 28.9985 2.30769 50.5462
lradius 33.4595
lwrist -17.4477
lhand 2.28583 35.03
lfingers 7.12502
lthumb 27.7779 62.9974
rfemur -20.6928 -4.59257 19.3669
rtibia 35.5049
rfoot -9.87987 -10.1303
rtoes 12.7084
lfemur -1.27417 -0.451978 -11.8357
ltibia 54.2884
lfoot -0.963802 -18.4791
ltoes -16.7382
68
root 3.9049 17.6908 13.5067 178.648 -9.3502 -181.357
lowerback 3.83925 0.52797 -0.487001
upperback -0.217632 0.653427 3.76806
thorax -2.42905 0.305248 4.12769
lowerneck -17.5056 -4.72831 -12.2398
upperneck 16.5139 -4.7924 6.97057
head 8.49749 -2.38456 3.75463
rclavicle 1.86485e-014 4.29375e-014
rhumerus 35.0863 9.20482 -56.4067
rradius 31.7443
rwrist -1.59467
rhand -7.00565 26.0433
rfingers 7.12502
rthumb 18.8654 -3.06185
lclavicle 1.86485e-014 4.29375e-014
lhumerus 29.1884 2.53672 50.5199
lradius 33.6186
lwrist -17.3276
lhand 2.43143 34.8
lfingers 7.12502
lthumb 27.9171 62.7448
rfemur -20.0855 -4.52529 19.4632
rtibia 35.3
rfoot -10.0845 -9.86692
rtoes 12.79
lfemur -2.12063 -0.0423436 -11.9143
ltibia 55.11
lfoot -1.8253 -17.4159
ltoes -16.6072
69
root 3.90514 17.6992 13.3669 178.675 -8.91347 -181.299
lowerback 3.63743 0.500417 -0.393682
upperback -0.191286 0.607791 3.93042
thorax -2.286 0.275122 4.24743
lowerneck -17.6774 -4.71219 -11.9289
upperneck 16.4856 -4.74782 6.59549
head 8.49623 -2.37605 3.57818
rclavicle 6.08778e-015 5.88403e-014
rhumerus 34.9014 9.17984 -57.1643
rradius 31.8163
rwrist -1.37684
rhand -6.39391 25.8612
rfingers 7.12502
rthumb 19.4537 -3.18562
lclavicle 6.08778e-015 5.88403e-014
lhumerus 29.5013 2.75105 50.2227
lradius 33.7909
lwrist -17.2167
lhand 2.59816 34.5153
lfingers 7.12502
lthumb 28.0765 62.4342
rfemur -19.5208 -4.68172 19.6359
rtibia 35.0586
rfoot -10.3076 -9.30283
rtoes 13.8941
lfemur -3.04057 0.563538 -11.8895
ltibia 55.8016
lfoot -2.95803 -16.4084
ltoes -17.8444
70
root 3.90457 17.7164 13.228 178.695 -8.36925 -181.022
lowerback 3.41066 0.525447 0.0414722
upperback -0.188906 0.641945 4.05601
thorax -2.15504 0.279822 4.13033
lowerneck -17.6666 -4.68578 -11.594
upperneck 16.2811 -4.72179 6.27396
head 8.40592 -2.36923 3.41468
rclavicle 1.19147e-014 8.42847e-014
rhumerus 34.5013 9.32343 -57.6396
rradius 32.0288
rwrist -1.46918
rhand -6.10811 25.7204
rfingers 7.12502
rthumb 19.7284 -3.29843
lclavicle 1.19147e-014 8.42847e-014
lhumerus 29.9975 2.96526 50.0091
lradius 33.7706
lwrist -17.3536
lhand 2.82218 34.3763
lfingers 7.12502
lthumb 28.2906 62.2598
rfemur -18.9702 -4.91577 20.0498
rtibia 34.8181
rfoot -10.5416 -8.55
rtoes 14.8252
lfemur -4 1.22453 -11.6343
ltibia 56.3837
lfoot -3.71505 -15.4033
ltoes -18.3289
71
root 3.90514 17.7377 13.0912 178.813 -7.72834 -180.737
lowerback 3.21907 0.598388 0.451948
upperback -0.256927 0.739222 4.19829
thorax -2.12078 0.317629 4.04199
lowerneck -17.7547 -4.67669 -11.4865
upperneck 16.3104 -4.70056 6.14014
head 8.42318 -2.36478 3.35327
rclavicle 3.83157e-014 9.22361e-014
rhumerus 33.9524 9.81626 -57.6666
rradius 32.4126
rwrist -1.99539
rhand -6.22732 25.5882
rfingers 7.12502
rthumb 19.6138 -3.44242
lclavicle 3.83157e-014 9.22361e-014
lhumerus 30.4811 3.01497 49.8392
lradius 33.6655
lwrist -17.2698
lhand 2.59904 34.5272
lfingers 7.12502
lthumb 28.0773 62.4459
rfemur -18.5588 -4.82295 20.4816
rtibia 34.5741
rfoot -10.8329 -8.04805
rtoes 14.0076
lfemur -5.03816 1.72821 -11.3741
ltibia 56.8683
lfoot -3.82319 -14.6834
ltoes -15.1471
72
root 3.90728 17.7589 12.9514 178.942 -7.23829 -181.126
lowerback 3.14796 0.588367 0.0670801
upperback -0.312294 0.715431 4.22668
thorax -2.14197 0.312748 4.29156
lowerneck -18.1753 -4.68667 -11.5597
upperneck 16.7425 -4.65917 6.11261
head 8.6411 -2.35551 3.36021
rclavicle -2.30466e-014 -2.06736e-014
rhumerus 33.4352 10.7791 -57.2007
rradius 32.9241
rwrist -3.12324
rhand -6.45077 25.3274
rfingers 7.12502
rthumb 19.399 -3.72499
lclavicle -2.30466e-014 -2.06736e-014
lhumerus 30.674 3.00542 49.4047
lradius 33.7964
lwrist -16.956
lhand 2.57285 34.7005
lfingers 7.12502
lthumb 28.0523 62.6233
rfemur -18.0418 -4.58349 20.1375
rtibia 34.3311
rfoot -11.173 -7.75698
rtoes 13.2031
lfemur -5.94705 2.14906 -11.8792
ltibia 57.1549
lfoot -4.39717 -14.0347
ltoes -12.1317
73
root 3.90466 17.7706 12.8142 178.826 -6.81571 -181.594
lowerback 3.25813 0.584346 -0.369916
upperback -0.275738 0.701072 4.21025
thorax -2.17086 0.313693 4.52296
lowerneck -18.3397 -4.73164 -11.5541
upperneck 16.8712 -4.70268 6.08361
head 8.71732 -2.37864 3.34262
rclavicle -9.39258e-015 -4.92986e-014
rhumerus 33.0094 11.044 -57.331
rradius 33.1231
rwrist -3.53199
rhand -6.1103 25.1206
rfingers 7.12502
rthumb 19.7263 -3.8985
lclavicle -9.39258e-015 -4.92986e-014
lhumerus 30.9054 2.96435 48.9339
lradius 34.0464
lwrist -16.8044
lhand 2.88383 34.5801
lfingers 7.12502
lthumb 28.3495 62.4539
rfemur -17.2268 -4.64319 19.6653
rtibia 34.0944
rfoot -11.5352 -7.21586
rtoes 12.3899
lfemur -6.55349 2.56378 -12.5184
ltibia 57.2745
lfoot -5.4664 -13.4132
ltoes -12.025
74
root 3.90127 17.7729 12.6832 178.522 -6.24265 -181.552
lowerback 3.36797 0.609051 -0.256933
upperback -0.0524745 0.721046 4.33629
thorax -2.00442 0.31248 4.58895
lowerneck -18.3392 -4.7668 -11.5118
upperneck 16.4455 -4.71842 6.02055
head 8.57128 -2.37661 3.30873
rclavicle 1.15544e-015 -5.56597e-014
rhumerus 32.9945 10.5431 -58.22
rradius 32.9987
rwrist -3.11212
rhand -5.48106 25.1745
rfingers 7.12502
rthumb 20.3312 -3.78126
lclavicle 1.15544e-015 -5.56597e-014
lhumerus 31.3269 3.17186 48.6719
lradius 34.1581
lwrist -16.7297
lhand 2.72589 34.2096
lfingers 7.12502
lthumb 28.1986 62.1084
rfemur -16.3235 -4.81194 19.7413
rtibia 33.8504
rfoot -11.8998 -6.54828
rtoes 11.5141
lfemur -7.06101 2.93984 -12.6348
ltibia 57.2947
lfoot -6.62 -12.9348
ltoes -12.6734
75
root 3.89969 17.7796 12.5535 178.304 -5.65571 -181.147
lowerback 3.41083 0.621489 0.271607
upperback 0.0700881 0.733896 4.48687
thorax -1.898 0.30186 4.44529
lowerneck -18.3006 -4.72907 -11.4319
upperneck 16.1758 -4.67936 6.04254
head 8.46766 -2.344 3.30733
rclavicle 2.67614e-014 1.08139e-013
rhumerus 32.8088 10.6071 -58.6709
rradius 33.0497
rwrist -3.21817
rhand -5.60427 25.4152
rfingers 7.12502
rthumb 20.2127 -3.5532
lclavicle 2.67614e-014 1.08139e-013
lhumerus 31.6993 3.29586 48.4308
lradius 34.2066
lwrist -16.5085
lhand 2.25636 34.2206
lfingers 7.12502
lthumb 27.7497 62.1925
rfemur -15.553 -4.78487 20.2132
rtibia 33.5794
rfoot -12.1175 -6.13969
rtoes 11.6049
lfemur -7.71339 3.32219 -12.307
ltibia 57.2041
lfoot -7.52114 -12.6745
ltoes -12.1293
76
root 3.89363 17.7878 12.4238 178.31 -5.16213 -180.646
lowerback 3.40239 0.637904 0.976827
upperback -0.0126693 0.767309 4.58899
thorax -1.97213 0.304274 4.15064
lowerneck -18.3152 -4.64079 -11.3202
upperneck 16.2698 -4.61895 6.16862
head 8.49598 -2.29846 3.34159
rclavicle -1.45858e-014 4.6118e-014
rhumerus 32.3064 10.8817 -58.9227
rradius 33.1277
rwrist -3.47661
rhand -6.22707 25.5886
rfingers 7.12502
rthumb 19.6141 -3.44192
lclavicle -1.45858e-014 4.6118e-014
lhumerus 32.1019 3.10935 48.0275
lradius 34.2143
lwrist -16.1357
lhand 2.02383 34.5545
lfingers 7.12502
lthumb 27.5274 62.5621
rfemur -15.0206 -4.81163 20.8004
rtibia 33.2989
rfoot -12.2892 -5.80868
rtoes 11.6634
lfemur -8.61349 3.88215 -11.8094
ltibia 57.0284
lfoot -7.90773 -12.7954
ltoes -11.435
77
root 3.89068 17.7893 12.2963 178.427 -4.66439 -180.508
lowerback 3.32867 0.696017 1.23031
upperback -0.075862 0.84797 4.62121
thorax -1.9975 0.339478 4.03712
lowerneck -18.2504 -4.60988 -11.2784
upperneck 16.1919 -4.63044 6.35717
head 8.46244 -2.28187 3.39847
rclavicle -6.33626e-016 -5.08889e-014
rhumerus 31.8231 10.5129 -59.616
rradius 33.1564
rwrist -3.03357
rhand -6.33003 25.2642
rfingers 7.12502
rthumb 19.5151 -3.77638
lclavicle -6.33626e-016 -5.08889e-014
lhumerus 32.6894 2.99255 47.7374
lradius 34.1
lwrist -15.9412
lhand 2.08968 34.6878
lfingers 7.12502
lthumb 27.5904 62.6853
rfemur -14.6174 -4.71959 21.0159
rtibia 33.0645
rfoot -12.6466 -5.60625
rtoes 11.2757
lfemur -9.6327 4.45659 -11.7781
ltibia 56.7727
lfoot -8.51624 -12.8929
ltoes -13.3113
78
root 3.89175 17.7814 12.1709 178.524 -3.99564 -180.229
lowerback 3.17098 0.807328 1.47892
upperback -0.0936826 0.9837 4.77673
thorax -1.93384 0.397021 4.05335
lowerneck -18.0736 -4.61622 -11.1922
upperneck 15.9394 -4.64911 6.2543
head 8.34334 -2.29329 3.34621
rclavicle 5.26779e-015 1.59028e-014
rhumerus 31.3906 10.568 -59.6922
rradius 33.313
rwrist -3.1042
rhand -6.31589 25.0087
rfingers 7.12502
rthumb 19.5287 -4.03057
lclavicle 5.26779e-015 1.59028e-014
lhumerus 33.2305 3.11365 47.8387
lradius 33.9822
lwrist -15.9849
lhand 1.96056 34.8635
lfingers 7.12502
lthumb 27.4669 62.8807
rfemur -14.2615 -4.44121 21.4091
rtibia 32.9178
rfoot -13.0019 -5.46292
rtoes 10.3544
lfemur -10.6041 4.96124 -11.6461
ltibia 56.4539
lfoot -9.57505 -12.7142
ltoes -16.1939
79
root 3.88667 17.7707 12.0447 178.466 -3.23257 -179.787
lowerback 2.97267 0.826908 1.92095
upperback 0.161301 0.964284 5.07734
thorax -1.55556 0.363681 4.12032
lowerneck -18.6631 -4.58509 -11.2875
upperneck 16.0429 -4.4559 6.0234
head 8.46062 -2.2195 3.30347
rclavicle -1.3741e-014 7.79236e-014
rhumerus 31.5646 11.0551 -59.4485
rradius 33.3119
rwrist -3.07573
rhand -7.09803 25.5607
rfingers 7.12502
rthumb 18.7765 -3.55305
lclavicle -1.3741e-014 7.79236e-014
lhumerus 33.6713 3.95433 48.0918
lradius 33.9601
lwrist -16.4697
lhand 2.50595 34.851
lfingers 7.12502
lthumb 27.9884 62.7842
rfemur -13.7892 -4.31382 21.9279
rtibia 32.8863
rfoot -13.3189 -5.13306
rtoes 9.54958
lfemur -11.3683 5.51926 -11.3052
ltibia 56.0866
lfoot -10.258 -12.5664
ltoes -16.7995
